<?xml version="1.0" encoding="UTF-8" standalone="no"?>
<!DOCTYPE svg PUBLIC "-//W3C//DTD SVG 1.1//EN"
 "http://www.w3.org/Graphics/SVG/1.1/DTD/svg11.dtd">
<!-- Generated by graphviz version 2.43.0 (0)
 -->
<!-- Title: graph Pages: 1 -->
<svg width="332px" height="152px"
 viewBox="0.00 0.00 332.00 152.00" xmlns="http://www.w3.org/2000/svg" xmlns:xlink="http://www.w3.org/1999/xlink">
<g id="graph0" class="graph" transform="scale(1.0 1.0) rotate(0.0) translate(4.0 148.0)">
<title>graph</title>
<polygon fill="white" stroke="transparent" points="-4,4 -4,-148 328,-148 328,4 -4,4"/>
<!-- a -->
<g id="node1" class="node">
<title>a</title>
<ellipse fill="none" stroke="orange" cx="27" cy="-64" rx="27" ry="18"/>
<text text-anchor="middle" x="27" y="-60.3" font-family="Times,serif" font-size="14.00">a</text>
</g>
<!-- b -->
<g id="node2" class="node">
<title>b</title>
<ellipse fill="none" stroke="gold" cx="117" cy="-118" rx="27" ry="18"/>
<text text-anchor="middle" x="117" y="-114.3" font-family="Times,serif" font-size="14.00">b</text>
</g>
<!-- a&#45;&gt;b -->
<g id="edge1" class="edge">
<title>a&#45;&gt;b</title>
<path fill="none" stroke="black" d="M47.53,-75.98C59.38,-83.26 74.7,-92.66 87.84,-100.72"/>
<polygon fill="black" stroke="black" points="86.17,-103.8 96.52,-106.05 89.83,-97.84 86.17,-103.8"/>
</g>
<!-- 1 -->
<g id="node5" class="node">
<title>1</title>
<ellipse fill="none" stroke="orange" cx="117" cy="-64" rx="27" ry="18"/>
<text text-anchor="middle" x="117" y="-60.3" font-family="Times,serif" font-size="14.00">1</text>
</g>
<!-- a&#45;&gt;1 -->
<g id="edge4" class="edge">
<title>a&#45;&gt;1</title>
<path fill="none" stroke="black" d="M54.4,-64C62.39,-64 71.31,-64 79.82,-64"/>
<polygon fill="black" stroke="black" points="79.92,-67.5 89.92,-64 79.92,-60.5 79.92,-67.5"/>
</g>
<!-- c -->
<g id="node3" class="node">
<title>c</title>
<ellipse fill="none" stroke="green" cx="207" cy="-126" rx="27" ry="18"/>
<text text-anchor="middle" x="207" y="-122.3" font-family="Times,serif" font-size="14.00">c</text>
</g>
<!-- b&#45;&gt;c -->
<g id="edge2" class="edge">
<title>b&#45;&gt;c</title>
<path fill="none" stroke="black" d="M143.93,-120.36C152.09,-121.1 161.26,-121.93 169.99,-122.73"/>
<polygon fill="black" stroke="black" points="169.68,-126.21 179.95,-123.63 170.31,-119.24 169.68,-126.21"/>
</g>
<!-- 2 -->
<g id="node6" class="node">
<title>2</title>
<ellipse fill="none" stroke="green" cx="207" cy="-72" rx="27" ry="18"/>
<text text-anchor="middle" x="207" y="-68.3" font-family="Times,serif" font-size="14.00">2</text>
</g>
<!-- b&#45;&gt;2 -->
<g id="edge10" class="edge">
<title>b&#45;&gt;2</title>
<path fill="none" stroke="black" d="M138.85,-107.1C150.03,-101.26 164,-93.96 176.29,-87.53"/>
<polygon fill="black" stroke="black" points="178.05,-90.56 185.29,-82.82 174.81,-84.35 178.05,-90.56"/>
</g>
<!-- d -->
<g id="node4" class="node">
<title>d</title>
<ellipse fill="none" stroke="blue" cx="297" cy="-99" rx="27" ry="18"/>
<text text-anchor="middle" x="297" y="-95.3" font-family="Times,serif" font-size="14.00">d</text>
</g>
<!-- c&#45;&gt;d -->
<g id="edge3" class="edge">
<title>c&#45;&gt;d</title>
<path fill="none" stroke="black" d="M232.05,-118.62C241.44,-115.74 252.36,-112.39 262.5,-109.28"/>
<polygon fill="black" stroke="black" points="263.75,-112.55 272.29,-106.28 261.7,-105.86 263.75,-112.55"/>
</g>
<!-- 1&#45;&gt;2 -->
<g id="edge5" class="edge">
<title>1&#45;&gt;2</title>
<path fill="none" stroke="black" d="M143.93,-66.36C152.09,-67.1 161.26,-67.93 169.99,-68.73"/>
<polygon fill="black" stroke="black" points="169.68,-72.21 179.95,-69.63 170.31,-65.24 169.68,-72.21"/>
</g>
<!-- X -->
<g id="node7" class="node">
<title>X</title>
<ellipse fill="none" stroke="orange" cx="207" cy="-18" rx="27" ry="18"/>
<text text-anchor="middle" x="207" y="-14.3" font-family="Times,serif" font-size="14.00">X</text>
</g>
<!-- 1&#45;&gt;X -->
<g id="edge7" class="edge">
<title>1&#45;&gt;X</title>
<path fill="none" stroke="black" d="M138.85,-53.1C150.03,-47.26 164,-39.96 176.29,-33.53"/>
<polygon fill="black" stroke="black" points="178.05,-36.56 185.29,-28.82 174.81,-30.35 178.05,-36.56"/>
</g>
<!-- 2&#45;&gt;d -->
<g id="edge6" class="edge">
<title>2&#45;&gt;d</title>
<path fill="none" stroke="black" d="M232.05,-79.38C241.44,-82.26 252.36,-85.61 262.5,-88.72"/>
<polygon fill="black" stroke="black" points="261.7,-92.14 272.29,-91.72 263.75,-85.45 261.7,-92.14"/>
</g>
<!-- X&#45;&gt;a -->
<g id="edge11" class="edge">
<title>X&#45;&gt;a</title>
<path fill="none" stroke="black" d="M179.79,-20.42C156,-23.05 120.15,-28.12 90,-37 79.33,-40.14 68.07,-44.66 58.11,-49.1"/>
<polygon fill="black" stroke="black" points="56.65,-45.92 49.03,-53.28 59.58,-52.28 56.65,-45.92"/>
</g>
<!-- Y -->
<g id="node8" class="node">
<title>Y</title>
<ellipse fill="none" stroke="gold" cx="297" cy="-18" rx="27" ry="18"/>
<text text-anchor="middle" x="297" y="-14.3" font-family="Times,serif" font-size="14.00">Y</text>
</g>
<!-- X&#45;&gt;Y -->
<g id="edge8" class="edge">
<title>X&#45;&gt;Y</title>
<path fill="none" stroke="black" d="M234.4,-18C242.39,-18 251.31,-18 259.82,-18"/>
<polygon fill="black" stroke="black" points="259.92,-21.5 269.92,-18 259.92,-14.5 259.92,-21.5"/>
</g>
<!-- 0 -->
<g id="node9" class="node">
<title>0</title>
<ellipse fill="none" stroke="red" cx="27" cy="-118" rx="27" ry="18"/>
<text text-anchor="middle" x="27" y="-114.3" font-family="Times,serif" font-size="14.00">0</text>
</g>
<!-- 0&#45;&gt;b -->
<g id="edge9" class="edge">
<title>0&#45;&gt;b</title>
<path fill="none" stroke="black" d="M54.4,-118C62.39,-118 71.31,-118 79.82,-118"/>
<polygon fill="black" stroke="black" points="79.92,-121.5 89.92,-118 79.92,-114.5 79.92,-121.5"/>
</g>
</g>
</svg>
