<?xml version="1.0" encoding="UTF-8" standalone="no"?>
<!DOCTYPE svg PUBLIC "-//W3C//DTD SVG 1.1//EN"
 "http://www.w3.org/Graphics/SVG/1.1/DTD/svg11.dtd">
<!-- Generated by graphviz version 2.43.0 (0)
 -->
<!-- Title: label Pages: 1 -->
<svg width="428px" height="99px"
 viewBox="0.00 0.00 428.00 99.00" xmlns="http://www.w3.org/2000/svg" xmlns:xlink="http://www.w3.org/1999/xlink">
<g id="graph0" class="graph" transform="scale(1.0 1.0) rotate(0.0) translate(4.0 95.0)">
<title>label</title>
<polygon fill="white" stroke="transparent" points="-4,4 -4,-95 424,-95 424,4 -4,4"/>
<g id="clust1" class="cluster">
<title>cluster_1</title>
<polygon fill="none" stroke="black" points="176,-8 176,-83 336,-83 336,-8 176,-8"/>
<text text-anchor="middle" x="256" y="-67.8" font-family="Times,serif" font-size="14.00">label embedded</text>
</g>
<!-- A -->
<g id="node1" class="node">
<title>A</title>
<polygon fill="none" stroke="black" points="56,-52 0,-52 0,-16 56,-16 56,-52"/>
<text text-anchor="middle" x="28" y="-30.3" font-family="Times,serif" font-size="14.00">label A</text>
</g>
<!-- B -->
<g id="node2" class="node">
<title>B</title>
<polygon fill="none" stroke="black" points="148,-52 92,-52 92,-16 148,-16 148,-52"/>
<text text-anchor="middle" x="120" y="-30.3" font-family="Times,serif" font-size="14.00">label B</text>
</g>
<!-- A&#45;&gt;B -->
<g id="edge2" class="edge">
<title>A&#45;&gt;B</title>
<path fill="none" stroke="black" d="M56,-34C64.03,-34 72.97,-34 81.53,-34"/>
<polygon fill="black" stroke="black" points="81.71,-37.5 91.71,-34 81.7,-30.5 81.71,-37.5"/>
</g>
<!-- embedded__a -->
<g id="node4" class="node">
<title>embedded__a</title>
<polygon fill="none" stroke="black" points="238,-52 184,-52 184,-16 238,-16 238,-52"/>
<text text-anchor="middle" x="211" y="-30.3" font-family="Times,serif" font-size="14.00">label a</text>
</g>
<!-- B&#45;&gt;embedded__a -->
<g id="edge3" class="edge">
<title>B&#45;&gt;embedded__a</title>
<path fill="none" stroke="black" d="M148.19,-34C156.25,-34 165.22,-34 173.77,-34"/>
<polygon fill="black" stroke="black" points="173.89,-37.5 183.89,-34 173.89,-30.5 173.89,-37.5"/>
</g>
<!-- C -->
<g id="node3" class="node">
<title>C</title>
<polygon fill="none" stroke="black" points="420,-52 364,-52 364,-16 420,-16 420,-52"/>
<text text-anchor="middle" x="392" y="-30.3" font-family="Times,serif" font-size="14.00">label C</text>
</g>
<!-- embedded__b -->
<g id="node5" class="node">
<title>embedded__b</title>
<polygon fill="none" stroke="black" points="328,-52 274,-52 274,-16 328,-16 328,-52"/>
<text text-anchor="middle" x="301" y="-30.3" font-family="Times,serif" font-size="14.00">label b</text>
</g>
<!-- embedded__a&#45;&gt;embedded__b -->
<g id="edge1" class="edge">
<title>embedded__a&#45;&gt;embedded__b</title>
<path fill="none" stroke="black" d="M238.4,-34C246.39,-34 255.31,-34 263.82,-34"/>
<polygon fill="black" stroke="black" points="263.92,-37.5 273.92,-34 263.92,-30.5 263.92,-37.5"/>
</g>
<!-- embedded__b&#45;&gt;C -->
<g id="edge4" class="edge">
<title>embedded__b&#45;&gt;C</title>
<path fill="none" stroke="black" d="M328.22,-34C336.17,-34 345.06,-34 353.59,-34"/>
<polygon fill="black" stroke="black" points="353.73,-37.5 363.73,-34 353.73,-30.5 353.73,-37.5"/>
</g>
</g>
</svg>
