<?xml version="1.0" encoding="UTF-8" standalone="no"?>
<!DOCTYPE svg PUBLIC "-//W3C//DTD SVG 1.1//EN"
 "http://www.w3.org/Graphics/SVG/1.1/DTD/svg11.dtd">
<!-- Generated by graphviz version 2.43.0 (0)
 -->
<!-- Title: graph Pages: 1 -->
<svg width="332px" height="121px"
 viewBox="0.00 0.00 332.00 121.00" xmlns="http://www.w3.org/2000/svg" xmlns:xlink="http://www.w3.org/1999/xlink">
<g id="graph0" class="graph" transform="scale(1.0 1.0) rotate(0.0) translate(4.0 117.0)">
<title>graph</title>
<polygon fill="white" stroke="transparent" points="-4,4 -4,-117 328,-117 328,4 -4,4"/>
<!-- a -->
<g id="node1" class="node">
<title>a</title>
<ellipse fill="none" stroke="black" cx="27" cy="-41" rx="27" ry="18"/>
<text text-anchor="middle" x="27" y="-37.3" font-family="Times,serif" font-size="14.00">a</text>
</g>
<!-- b -->
<g id="node2" class="node">
<title>b</title>
<ellipse fill="none" stroke="black" cx="117" cy="-95" rx="27" ry="18"/>
<text text-anchor="middle" x="117" y="-91.3" font-family="Times,serif" font-size="14.00">b</text>
</g>
<!-- a&#45;&gt;b -->
<g id="edge1" class="edge">
<title>a&#45;&gt;b</title>
<path fill="none" stroke="black" d="M47.53,-52.98C59.38,-60.26 74.7,-69.66 87.84,-77.72"/>
<polygon fill="black" stroke="black" points="86.17,-80.8 96.52,-83.05 89.83,-74.84 86.17,-80.8"/>
</g>
<!-- 1 -->
<g id="node5" class="node">
<title>1</title>
<ellipse fill="none" stroke="black" cx="117" cy="-41" rx="27" ry="18"/>
<text text-anchor="middle" x="117" y="-37.3" font-family="Times,serif" font-size="14.00">1</text>
</g>
<!-- a&#45;&gt;1 -->
<g id="edge4" class="edge">
<title>a&#45;&gt;1</title>
<path fill="none" stroke="black" d="M54.4,-41C62.39,-41 71.31,-41 79.82,-41"/>
<polygon fill="black" stroke="black" points="79.92,-44.5 89.92,-41 79.92,-37.5 79.92,-44.5"/>
</g>
<!-- c -->
<g id="node3" class="node">
<title>c</title>
<ellipse fill="none" stroke="black" cx="207" cy="-95" rx="27" ry="18"/>
<text text-anchor="middle" x="207" y="-91.3" font-family="Times,serif" font-size="14.00">c</text>
</g>
<!-- b&#45;&gt;c -->
<g id="edge2" class="edge">
<title>b&#45;&gt;c</title>
<path fill="none" stroke="black" d="M144.4,-95C152.39,-95 161.31,-95 169.82,-95"/>
<polygon fill="black" stroke="black" points="169.92,-98.5 179.92,-95 169.92,-91.5 169.92,-98.5"/>
</g>
<!-- d -->
<g id="node4" class="node">
<title>d</title>
<ellipse fill="none" stroke="black" cx="297" cy="-95" rx="27" ry="18"/>
<text text-anchor="middle" x="297" y="-91.3" font-family="Times,serif" font-size="14.00">d</text>
</g>
<!-- c&#45;&gt;d -->
<g id="edge3" class="edge">
<title>c&#45;&gt;d</title>
<path fill="none" stroke="black" d="M234.4,-95C242.39,-95 251.31,-95 259.82,-95"/>
<polygon fill="black" stroke="black" points="259.92,-98.5 269.92,-95 259.92,-91.5 259.92,-98.5"/>
</g>
<!-- X -->
<g id="node6" class="node">
<title>X</title>
<ellipse fill="none" stroke="black" cx="207" cy="-18" rx="27" ry="18"/>
<text text-anchor="middle" x="207" y="-14.3" font-family="Times,serif" font-size="14.00">X</text>
</g>
<!-- 1&#45;&gt;X -->
<g id="edge5" class="edge">
<title>1&#45;&gt;X</title>
<path fill="none" stroke="black" d="M142.51,-34.59C151.57,-32.23 162.01,-29.5 171.78,-26.95"/>
<polygon fill="black" stroke="black" points="172.83,-30.29 181.62,-24.37 171.06,-23.51 172.83,-30.29"/>
</g>
<!-- X&#45;&gt;a -->
<g id="edge8" class="edge">
<title>X&#45;&gt;a</title>
<path fill="none" stroke="black" d="M180.36,-13.65C156.65,-10.44 120.58,-7.63 90,-14 78.94,-16.3 67.43,-20.69 57.38,-25.27"/>
<polygon fill="black" stroke="black" points="55.74,-22.17 48.24,-29.66 58.77,-28.48 55.74,-22.17"/>
</g>
<!-- Y -->
<g id="node7" class="node">
<title>Y</title>
<ellipse fill="none" stroke="black" cx="297" cy="-18" rx="27" ry="18"/>
<text text-anchor="middle" x="297" y="-14.3" font-family="Times,serif" font-size="14.00">Y</text>
</g>
<!-- X&#45;&gt;Y -->
<g id="edge6" class="edge">
<title>X&#45;&gt;Y</title>
<path fill="none" stroke="black" d="M234.4,-18C242.39,-18 251.31,-18 259.82,-18"/>
<polygon fill="black" stroke="black" points="259.92,-21.5 269.92,-18 259.92,-14.5 259.92,-21.5"/>
</g>
<!-- 0 -->
<g id="node8" class="node">
<title>0</title>
<ellipse fill="none" stroke="black" cx="27" cy="-95" rx="27" ry="18"/>
<text text-anchor="middle" x="27" y="-91.3" font-family="Times,serif" font-size="14.00">0</text>
</g>
<!-- 0&#45;&gt;b -->
<g id="edge7" class="edge">
<title>0&#45;&gt;b</title>
<path fill="none" stroke="black" d="M54.4,-95C62.39,-95 71.31,-95 79.82,-95"/>
<polygon fill="black" stroke="black" points="79.92,-98.5 89.92,-95 79.92,-91.5 79.92,-98.5"/>
</g>
</g>
</svg>
